<?xml version="1.0" encoding="UTF-8" standalone="no"?>
<!-- Created with Inkscape (http://www.inkscape.org/) -->

<svg
   xmlns:dc="http://purl.org/dc/elements/1.1/"
   xmlns:cc="http://creativecommons.org/ns#"
   xmlns:rdf="http://www.w3.org/1999/02/22-rdf-syntax-ns#"
   xmlns:svg="http://www.w3.org/2000/svg"
   xmlns="http://www.w3.org/2000/svg"
   xmlns:sodipodi="http://sodipodi.sourceforge.net/DTD/sodipodi-0.dtd"
   xmlns:inkscape="http://www.inkscape.org/namespaces/inkscape"
   width="64mm"
   height="64mm"
   viewBox="0 0 64 64"
   version="1.1"
   id="svg8"
   inkscape:version="0.92.4 (5da689c313, 2019-01-14)"
   sodipodi:docname="keyImg.svg">
  <defs
     id="defs2" />
  <sodipodi:namedview
     id="base"
     pagecolor="#ffffff"
     bordercolor="#666666"
     borderopacity="1.0"
     inkscape:pageopacity="0.0"
     inkscape:pageshadow="2"
     inkscape:zoom="1.4"
     inkscape:cx="98.114477"
     inkscape:cy="118.56905"
     inkscape:document-units="mm"
     inkscape:current-layer="layer1"
     showgrid="false"
     inkscape:window-width="1366"
     inkscape:window-height="705"
     inkscape:window-x="-8"
     inkscape:window-y="-8"
     inkscape:window-maximized="1" />
  <metadata
     id="metadata5">
    <rdf:RDF>
      <cc:Work
         rdf:about="">
        <dc:format>image/svg+xml</dc:format>
        <dc:type
           rdf:resource="http://purl.org/dc/dcmitype/StillImage" />
        <dc:title></dc:title>
      </cc:Work>
    </rdf:RDF>
  </metadata>
  <g
     inkscape:label="Layer 1"
     inkscape:groupmode="layer"
     id="layer1"
     transform="translate(0,-233)">
    <path
       style="fill:#000000;fill-opacity:1;stroke:#000000;stroke-width:15.11811066;stroke-linejoin:round;stroke-miterlimit:4;stroke-dasharray:none;stroke-opacity:1;paint-order:markers fill stroke"
       d="M 66.785156 74.746094 A 45.357142 47.142857 0 0 0 21.427734 121.89062 A 45.357142 47.142857 0 0 0 66.785156 169.0332 A 45.357142 47.142857 0 0 0 110.55664 134.0332 L 152.29688 134.0332 L 152.29688 161.9375 L 159.73242 161.9375 L 159.73242 134.0332 L 183.57812 134.0332 L 183.57812 161.69727 L 191.01172 161.69727 L 191.01172 134.0332 L 213.99414 134.0332 L 213.99414 162.12695 L 221.42773 162.12695 L 221.42773 134.0332 L 221.42773 105.46094 L 109.26953 105.46094 A 45.357142 47.142857 0 0 0 66.785156 74.746094 z "
       transform="matrix(0.26458333,0,0,0.26458333,0,233)"
       id="rect822" />
  </g>
</svg>
